<svg xmlns="http://www.w3.org/2000/svg" xmlns:xlink="http://www.w3.org/1999/xlink" width="500" zoomAndPan="magnify" viewBox="0 0 375 374.999991" height="500" preserveAspectRatio="xMidYMid meet" version="1.0"><defs><g/><clipPath id="9bb353496c"><path d="M 39 144 L 140 144 L 140 196.359375 L 39 196.359375 Z M 39 144 " clip-rule="nonzero"/></clipPath><clipPath id="6191871ac9"><path d="M 18.519531 122 L 161 122 L 161 196.359375 L 18.519531 196.359375 Z M 18.519531 122 " clip-rule="nonzero"/></clipPath><clipPath id="1b8eb02fcb"><path d="M 196 118 L 348 118 L 348 196.359375 L 196 196.359375 Z M 196 118 " clip-rule="nonzero"/></clipPath><clipPath id="2bc7acf18e"><path d="M 169 88.359375 L 374.769531 88.359375 L 374.769531 196.359375 L 169 196.359375 Z M 169 88.359375 " clip-rule="nonzero"/></clipPath></defs><g clip-path="url(#9bb353496c)"><path fill="#fefefe" d="M 39.53125 196.613281 L 43.476562 196.613281 L 89.691406 152.875 L 135.90625 196.613281 L 139.851562 196.613281 L 89.691406 144.476562 Z M 39.53125 196.613281 " fill-opacity="1" fill-rule="nonzero"/></g><g clip-path="url(#6191871ac9)"><path fill="#fefefe" d="M 18.683594 196.613281 L 33.042969 196.613281 L 89.691406 137.734375 L 146.339844 196.613281 L 160.699219 196.613281 L 89.691406 122.8125 Z M 18.683594 196.613281 " fill-opacity="1" fill-rule="nonzero"/></g><path fill="#fefefe" d="M 214.128906 140.457031 L 164.421875 95.605469 L 136.496094 123.878906 L 147.011719 125.378906 L 164.488281 107.679688 L 207.996094 146.933594 Z M 214.128906 140.457031 " fill-opacity="1" fill-rule="nonzero"/><g clip-path="url(#1b8eb02fcb)"><path fill="#fefefe" d="M 196.5625 196.613281 L 200.632812 196.613281 L 272.277344 130.875 L 343.917969 196.613281 L 347.988281 196.613281 L 272.277344 118.882812 Z M 196.5625 196.613281 " fill-opacity="1" fill-rule="nonzero"/></g><g clip-path="url(#2bc7acf18e)"><path fill="#fefefe" d="M 272.277344 88.375 L 169.757812 196.574219 L 169.792969 196.613281 L 189.652344 196.613281 L 272.277344 109.410156 L 354.898438 196.613281 L 374.832031 196.613281 Z M 272.277344 88.375 " fill-opacity="1" fill-rule="nonzero"/></g><path fill="#000000" d="M 99.539062 123.585938 L 165.324219 191.960938 L 194.53125 161.148438 L 162.394531 132.570312 Z M 99.539062 123.585938 " fill-opacity="1" fill-rule="nonzero"/><path fill="#000000" d="M 170.460938 94.242188 L 217.605469 136.789062 L 241.011719 112.089844 L 231.503906 103.515625 Z M 170.460938 94.242188 " fill-opacity="1" fill-rule="nonzero"/><path fill="#000000" d="M 90.648438 172.769531 L 90.648438 182.46875 L 98.097656 182.46875 L 98.097656 181.117188 C 98.097656 178.789062 97.152344 176.691406 95.632812 175.171875 C 94.328125 173.859375 92.582031 172.984375 90.648438 172.769531 Z M 90.648438 172.769531 " fill-opacity="1" fill-rule="nonzero"/><path fill="#000000" d="M 88.726562 172.769531 C 84.542969 173.238281 81.285156 176.792969 81.285156 181.117188 L 81.285156 182.46875 L 88.726562 182.46875 Z M 88.726562 172.769531 " fill-opacity="1" fill-rule="nonzero"/><path fill="#000000" d="M 90.648438 191.636719 L 90.648438 192.558594 L 98.097656 192.558594 L 98.097656 184.390625 L 90.648438 184.390625 Z M 90.648438 191.636719 " fill-opacity="1" fill-rule="nonzero"/><path fill="#000000" d="M 81.285156 184.390625 L 81.285156 192.558594 L 88.734375 192.558594 L 88.734375 184.390625 Z M 81.285156 184.390625 " fill-opacity="1" fill-rule="nonzero"/><path fill="#000000" d="M 281.03125 158.769531 C 279.105469 156.835938 276.539062 155.546875 273.683594 155.230469 L 273.683594 169.519531 L 284.664062 169.519531 L 284.664062 167.53125 C 284.664062 164.101562 283.269531 161.011719 281.03125 158.769531 Z M 281.03125 158.769531 " fill-opacity="1" fill-rule="nonzero"/><path fill="#000000" d="M 270.855469 155.230469 C 264.691406 155.917969 259.890625 161.160156 259.890625 167.53125 L 259.890625 169.523438 L 270.855469 169.523438 Z M 270.855469 155.230469 " fill-opacity="1" fill-rule="nonzero"/><path fill="#000000" d="M 273.683594 183.027344 L 273.683594 184.390625 L 284.664062 184.390625 L 284.664062 172.351562 L 273.683594 172.351562 Z M 273.683594 183.027344 " fill-opacity="1" fill-rule="nonzero"/><path fill="#000000" d="M 259.890625 172.351562 L 259.890625 184.390625 L 270.867188 184.390625 L 270.867188 172.351562 Z M 259.890625 172.351562 " fill-opacity="1" fill-rule="nonzero"/><g fill="#000000" fill-opacity="0.302"><g transform="translate(68.364819, 239.146456)"><g><path d="M 22.640625 0 L 20.59375 -5.53125 L 9.015625 -5.53125 L 7.015625 0 L 0.375 0 L 11.75 -29.078125 L 17.6875 -29.078125 L 29.453125 0 Z M 14.78125 -21.390625 L 11 -11 L 18.609375 -11 Z M 14.78125 -21.390625 "/></g></g></g><g fill="#000000" fill-opacity="0.302"><g transform="translate(98.180945, 239.146456)"><g><path d="M 19.3125 0 L 13.65625 -9.921875 L 9.640625 -9.921875 L 9.640625 0 L 3.328125 0 L 3.328125 -29.078125 L 15.078125 -29.078125 C 17.015625 -29.078125 18.742188 -28.660156 20.265625 -27.828125 C 21.785156 -26.992188 22.988281 -25.859375 23.875 -24.421875 C 24.757812 -22.984375 25.203125 -21.320312 25.203125 -19.4375 C 25.203125 -17.550781 24.722656 -15.867188 23.765625 -14.390625 C 22.816406 -12.910156 21.539062 -11.78125 19.9375 -11 L 26.375 0 Z M 9.640625 -23.25 L 9.640625 -15.734375 L 14.65625 -15.734375 C 15.957031 -15.734375 16.984375 -16.085938 17.734375 -16.796875 C 18.484375 -17.503906 18.859375 -18.398438 18.859375 -19.484375 C 18.859375 -20.585938 18.484375 -21.488281 17.734375 -22.1875 C 16.984375 -22.894531 15.957031 -23.25 14.65625 -23.25 Z M 9.640625 -23.25 "/></g></g></g><g fill="#000000" fill-opacity="0.302"><g transform="translate(125.630058, 239.146456)"><g><path d="M 16.65625 0.625 C 14.519531 0.625 12.535156 0.242188 10.703125 -0.515625 C 8.878906 -1.273438 7.289062 -2.335938 5.9375 -3.703125 C 4.582031 -5.078125 3.53125 -6.6875 2.78125 -8.53125 C 2.03125 -10.375 1.65625 -12.363281 1.65625 -14.5 C 1.65625 -16.65625 2.03125 -18.660156 2.78125 -20.515625 C 3.53125 -22.367188 4.582031 -23.976562 5.9375 -25.34375 C 7.289062 -26.71875 8.878906 -27.785156 10.703125 -28.546875 C 12.535156 -29.304688 14.519531 -29.6875 16.65625 -29.6875 C 19.007812 -29.6875 21.164062 -29.203125 23.125 -28.234375 C 25.09375 -27.265625 26.738281 -25.910156 28.0625 -24.171875 C 29.394531 -22.429688 30.285156 -20.410156 30.734375 -18.109375 L 24.421875 -18.109375 C 23.835938 -19.828125 22.851562 -21.191406 21.46875 -22.203125 C 20.082031 -23.210938 18.476562 -23.71875 16.65625 -23.71875 C 15.019531 -23.71875 13.550781 -23.304688 12.25 -22.484375 C 10.945312 -21.671875 9.914062 -20.570312 9.15625 -19.1875 C 8.394531 -17.800781 8.015625 -16.238281 8.015625 -14.5 C 8.015625 -12.75 8.394531 -11.1875 9.15625 -9.8125 C 9.914062 -8.445312 10.945312 -7.363281 12.25 -6.5625 C 13.550781 -5.757812 15.019531 -5.359375 16.65625 -5.359375 C 18.5625 -5.359375 20.207031 -5.894531 21.59375 -6.96875 C 22.976562 -8.050781 23.9375 -9.519531 24.46875 -11.375 L 30.8125 -11.375 C 30.375 -8.96875 29.492188 -6.863281 28.171875 -5.0625 C 26.859375 -3.269531 25.210938 -1.875 23.234375 -0.875 C 21.253906 0.125 19.0625 0.625 16.65625 0.625 Z M 16.65625 0.625 "/></g></g></g><g fill="#000000" fill-opacity="0.302"><g transform="translate(157.647106, 239.146456)"><g><path d="M 3.328125 0 L 3.328125 -29.078125 L 9.640625 -29.078125 L 9.640625 0 Z M 3.328125 0 "/></g></g></g><g fill="#000000" fill-opacity="0.302"><g transform="translate(170.60342, 239.146456)"><g><path d="M 20.5625 -29.078125 L 26.828125 -29.078125 L 26.828125 0 L 20.5625 0 L 20.5625 -12 L 9.640625 -12 L 9.640625 0 L 3.328125 0 L 3.328125 -29.078125 L 9.640625 -29.078125 L 9.640625 -17.859375 L 20.5625 -17.859375 Z M 20.5625 -29.078125 "/></g></g></g><g fill="#000000" fill-opacity="0.302"><g transform="translate(200.793291, 239.146456)"><g><path d="M 17.109375 0.625 C 14.890625 0.625 12.835938 0.242188 10.953125 -0.515625 C 9.078125 -1.273438 7.441406 -2.335938 6.046875 -3.703125 C 4.648438 -5.078125 3.5625 -6.6875 2.78125 -8.53125 C 2.007812 -10.375 1.625 -12.375 1.625 -14.53125 C 1.625 -16.695312 2.007812 -18.695312 2.78125 -20.53125 C 3.5625 -22.375 4.648438 -23.976562 6.046875 -25.34375 C 7.441406 -26.71875 9.078125 -27.785156 10.953125 -28.546875 C 12.835938 -29.304688 14.890625 -29.6875 17.109375 -29.6875 C 19.328125 -29.6875 21.375 -29.304688 23.25 -28.546875 C 25.132812 -27.785156 26.769531 -26.71875 28.15625 -25.34375 C 29.539062 -23.976562 30.617188 -22.375 31.390625 -20.53125 C 32.171875 -18.695312 32.5625 -16.695312 32.5625 -14.53125 C 32.5625 -12.375 32.171875 -10.375 31.390625 -8.53125 C 30.617188 -6.6875 29.539062 -5.078125 28.15625 -3.703125 C 26.769531 -2.335938 25.132812 -1.273438 23.25 -0.515625 C 21.375 0.242188 19.328125 0.625 17.109375 0.625 Z M 17.109375 -5.3125 C 18.859375 -5.3125 20.414062 -5.710938 21.78125 -6.515625 C 23.15625 -7.316406 24.234375 -8.410156 25.015625 -9.796875 C 25.804688 -11.179688 26.203125 -12.757812 26.203125 -14.53125 C 26.203125 -16.28125 25.804688 -17.851562 25.015625 -19.25 C 24.234375 -20.644531 23.15625 -21.742188 21.78125 -22.546875 C 20.414062 -23.347656 18.859375 -23.75 17.109375 -23.75 C 15.390625 -23.75 13.835938 -23.347656 12.453125 -22.546875 C 11.078125 -21.742188 9.984375 -20.644531 9.171875 -19.25 C 8.367188 -17.851562 7.96875 -16.28125 7.96875 -14.53125 C 7.96875 -12.789062 8.367188 -11.21875 9.171875 -9.8125 C 9.984375 -8.414062 11.078125 -7.316406 12.453125 -6.515625 C 13.835938 -5.710938 15.390625 -5.3125 17.109375 -5.3125 Z M 17.109375 -5.3125 "/></g></g></g><g fill="#000000" fill-opacity="0.302"><g transform="translate(234.969712, 239.146456)"><g><path d="M 15.03125 0.625 C 12.738281 0.625 10.691406 0.132812 8.890625 -0.84375 C 7.085938 -1.832031 5.660156 -3.191406 4.609375 -4.921875 C 3.554688 -6.648438 3.03125 -8.648438 3.03125 -10.921875 L 3.03125 -29.078125 L 9.34375 -29.078125 L 9.34375 -11.21875 C 9.34375 -9.414062 9.875 -7.976562 10.9375 -6.90625 C 12.007812 -5.84375 13.375 -5.3125 15.03125 -5.3125 C 16.71875 -5.3125 18.09375 -5.84375 19.15625 -6.90625 C 20.226562 -7.976562 20.765625 -9.414062 20.765625 -11.21875 L 20.765625 -29.078125 L 27.03125 -29.078125 L 27.03125 -10.921875 C 27.03125 -8.648438 26.507812 -6.648438 25.46875 -4.921875 C 24.4375 -3.191406 23.015625 -1.832031 21.203125 -0.84375 C 19.390625 0.132812 17.332031 0.625 15.03125 0.625 Z M 15.03125 0.625 "/></g></g></g><g fill="#000000" fill-opacity="0.302"><g transform="translate(265.034997, 239.146456)"><g><path d="M 12.953125 0.578125 C 10.742188 0.578125 8.789062 0.175781 7.09375 -0.625 C 5.40625 -1.425781 4.082031 -2.570312 3.125 -4.0625 C 2.175781 -5.5625 1.703125 -7.347656 1.703125 -9.421875 L 8.0625 -9.421875 C 8.0625 -8.015625 8.550781 -6.972656 9.53125 -6.296875 C 10.507812 -5.617188 11.640625 -5.28125 12.921875 -5.28125 C 13.722656 -5.28125 14.472656 -5.410156 15.171875 -5.671875 C 15.878906 -5.929688 16.460938 -6.316406 16.921875 -6.828125 C 17.378906 -7.335938 17.609375 -7.957031 17.609375 -8.6875 C 17.609375 -9.425781 17.34375 -10.007812 16.8125 -10.4375 C 16.289062 -10.875 15.585938 -11.226562 14.703125 -11.5 C 13.816406 -11.78125 12.847656 -12.046875 11.796875 -12.296875 C 10.710938 -12.546875 9.601562 -12.847656 8.46875 -13.203125 C 7.332031 -13.566406 6.28125 -14.046875 5.3125 -14.640625 C 4.34375 -15.234375 3.566406 -16.035156 2.984375 -17.046875 C 2.410156 -18.054688 2.125 -19.335938 2.125 -20.890625 C 2.125 -23.679688 3.070312 -25.832031 4.96875 -27.34375 C 6.863281 -28.851562 9.429688 -29.609375 12.671875 -29.609375 C 15.992188 -29.609375 18.566406 -28.769531 20.390625 -27.09375 C 22.222656 -25.425781 23.140625 -23.148438 23.140625 -20.265625 L 16.90625 -20.265625 C 16.90625 -21.515625 16.460938 -22.4375 15.578125 -23.03125 C 14.691406 -23.625 13.664062 -23.921875 12.5 -23.921875 C 11.476562 -23.921875 10.535156 -23.695312 9.671875 -23.25 C 8.816406 -22.8125 8.390625 -22.125 8.390625 -21.1875 C 8.390625 -20.488281 8.644531 -19.9375 9.15625 -19.53125 C 9.664062 -19.132812 10.34375 -18.804688 11.1875 -18.546875 C 12.03125 -18.285156 12.96875 -18.03125 14 -17.78125 C 15.101562 -17.5 16.234375 -17.171875 17.390625 -16.796875 C 18.554688 -16.421875 19.640625 -15.914062 20.640625 -15.28125 C 21.640625 -14.644531 22.445312 -13.800781 23.0625 -12.75 C 23.6875 -11.695312 24 -10.367188 24 -8.765625 C 24 -6.660156 23.492188 -4.914062 22.484375 -3.53125 C 21.472656 -2.144531 20.132812 -1.113281 18.46875 -0.4375 C 16.8125 0.238281 14.972656 0.578125 12.953125 0.578125 Z M 12.953125 0.578125 "/></g></g></g><g fill="#000000" fill-opacity="0.302"><g transform="translate(290.739986, 239.146456)"><g><path d="M 9.640625 -5.859375 L 21.21875 -5.859375 L 21.21875 0 L 3.328125 0 L 3.328125 -29.078125 L 20.765625 -29.078125 L 20.765625 -23.25 L 9.640625 -23.25 L 9.640625 -17.53125 L 19.6875 -17.53125 L 19.6875 -11.84375 L 9.640625 -11.84375 Z M 9.640625 -5.859375 "/></g></g></g><g fill="#000000" fill-opacity="0.502"><g transform="translate(66.529131, 237.310757)"><g><path d="M 22.640625 0 L 20.59375 -5.53125 L 9.015625 -5.53125 L 7.015625 0 L 0.375 0 L 11.75 -29.078125 L 17.6875 -29.078125 L 29.453125 0 Z M 14.78125 -21.390625 L 11 -11 L 18.609375 -11 Z M 14.78125 -21.390625 "/></g></g></g><g fill="#000000" fill-opacity="0.502"><g transform="translate(96.345257, 237.310757)"><g><path d="M 19.3125 0 L 13.65625 -9.921875 L 9.640625 -9.921875 L 9.640625 0 L 3.328125 0 L 3.328125 -29.078125 L 15.078125 -29.078125 C 17.015625 -29.078125 18.742188 -28.660156 20.265625 -27.828125 C 21.785156 -26.992188 22.988281 -25.859375 23.875 -24.421875 C 24.757812 -22.984375 25.203125 -21.320312 25.203125 -19.4375 C 25.203125 -17.550781 24.722656 -15.867188 23.765625 -14.390625 C 22.816406 -12.910156 21.539062 -11.78125 19.9375 -11 L 26.375 0 Z M 9.640625 -23.25 L 9.640625 -15.734375 L 14.65625 -15.734375 C 15.957031 -15.734375 16.984375 -16.085938 17.734375 -16.796875 C 18.484375 -17.503906 18.859375 -18.398438 18.859375 -19.484375 C 18.859375 -20.585938 18.484375 -21.488281 17.734375 -22.1875 C 16.984375 -22.894531 15.957031 -23.25 14.65625 -23.25 Z M 9.640625 -23.25 "/></g></g></g><g fill="#000000" fill-opacity="0.502"><g transform="translate(123.79437, 237.310757)"><g><path d="M 16.65625 0.625 C 14.519531 0.625 12.535156 0.242188 10.703125 -0.515625 C 8.878906 -1.273438 7.289062 -2.335938 5.9375 -3.703125 C 4.582031 -5.078125 3.53125 -6.6875 2.78125 -8.53125 C 2.03125 -10.375 1.65625 -12.363281 1.65625 -14.5 C 1.65625 -16.65625 2.03125 -18.660156 2.78125 -20.515625 C 3.53125 -22.367188 4.582031 -23.976562 5.9375 -25.34375 C 7.289062 -26.71875 8.878906 -27.785156 10.703125 -28.546875 C 12.535156 -29.304688 14.519531 -29.6875 16.65625 -29.6875 C 19.007812 -29.6875 21.164062 -29.203125 23.125 -28.234375 C 25.09375 -27.265625 26.738281 -25.910156 28.0625 -24.171875 C 29.394531 -22.429688 30.285156 -20.410156 30.734375 -18.109375 L 24.421875 -18.109375 C 23.835938 -19.828125 22.851562 -21.191406 21.46875 -22.203125 C 20.082031 -23.210938 18.476562 -23.71875 16.65625 -23.71875 C 15.019531 -23.71875 13.550781 -23.304688 12.25 -22.484375 C 10.945312 -21.671875 9.914062 -20.570312 9.15625 -19.1875 C 8.394531 -17.800781 8.015625 -16.238281 8.015625 -14.5 C 8.015625 -12.75 8.394531 -11.1875 9.15625 -9.8125 C 9.914062 -8.445312 10.945312 -7.363281 12.25 -6.5625 C 13.550781 -5.757812 15.019531 -5.359375 16.65625 -5.359375 C 18.5625 -5.359375 20.207031 -5.894531 21.59375 -6.96875 C 22.976562 -8.050781 23.9375 -9.519531 24.46875 -11.375 L 30.8125 -11.375 C 30.375 -8.96875 29.492188 -6.863281 28.171875 -5.0625 C 26.859375 -3.269531 25.210938 -1.875 23.234375 -0.875 C 21.253906 0.125 19.0625 0.625 16.65625 0.625 Z M 16.65625 0.625 "/></g></g></g><g fill="#000000" fill-opacity="0.502"><g transform="translate(155.811418, 237.310757)"><g><path d="M 3.328125 0 L 3.328125 -29.078125 L 9.640625 -29.078125 L 9.640625 0 Z M 3.328125 0 "/></g></g></g><g fill="#000000" fill-opacity="0.502"><g transform="translate(168.767732, 237.310757)"><g><path d="M 20.5625 -29.078125 L 26.828125 -29.078125 L 26.828125 0 L 20.5625 0 L 20.5625 -12 L 9.640625 -12 L 9.640625 0 L 3.328125 0 L 3.328125 -29.078125 L 9.640625 -29.078125 L 9.640625 -17.859375 L 20.5625 -17.859375 Z M 20.5625 -29.078125 "/></g></g></g><g fill="#000000" fill-opacity="0.502"><g transform="translate(198.957603, 237.310757)"><g><path d="M 17.109375 0.625 C 14.890625 0.625 12.835938 0.242188 10.953125 -0.515625 C 9.078125 -1.273438 7.441406 -2.335938 6.046875 -3.703125 C 4.648438 -5.078125 3.5625 -6.6875 2.78125 -8.53125 C 2.007812 -10.375 1.625 -12.375 1.625 -14.53125 C 1.625 -16.695312 2.007812 -18.695312 2.78125 -20.53125 C 3.5625 -22.375 4.648438 -23.976562 6.046875 -25.34375 C 7.441406 -26.71875 9.078125 -27.785156 10.953125 -28.546875 C 12.835938 -29.304688 14.890625 -29.6875 17.109375 -29.6875 C 19.328125 -29.6875 21.375 -29.304688 23.25 -28.546875 C 25.132812 -27.785156 26.769531 -26.71875 28.15625 -25.34375 C 29.539062 -23.976562 30.617188 -22.375 31.390625 -20.53125 C 32.171875 -18.695312 32.5625 -16.695312 32.5625 -14.53125 C 32.5625 -12.375 32.171875 -10.375 31.390625 -8.53125 C 30.617188 -6.6875 29.539062 -5.078125 28.15625 -3.703125 C 26.769531 -2.335938 25.132812 -1.273438 23.25 -0.515625 C 21.375 0.242188 19.328125 0.625 17.109375 0.625 Z M 17.109375 -5.3125 C 18.859375 -5.3125 20.414062 -5.710938 21.78125 -6.515625 C 23.15625 -7.316406 24.234375 -8.410156 25.015625 -9.796875 C 25.804688 -11.179688 26.203125 -12.757812 26.203125 -14.53125 C 26.203125 -16.28125 25.804688 -17.851562 25.015625 -19.25 C 24.234375 -20.644531 23.15625 -21.742188 21.78125 -22.546875 C 20.414062 -23.347656 18.859375 -23.75 17.109375 -23.75 C 15.390625 -23.75 13.835938 -23.347656 12.453125 -22.546875 C 11.078125 -21.742188 9.984375 -20.644531 9.171875 -19.25 C 8.367188 -17.851562 7.96875 -16.28125 7.96875 -14.53125 C 7.96875 -12.789062 8.367188 -11.21875 9.171875 -9.8125 C 9.984375 -8.414062 11.078125 -7.316406 12.453125 -6.515625 C 13.835938 -5.710938 15.390625 -5.3125 17.109375 -5.3125 Z M 17.109375 -5.3125 "/></g></g></g><g fill="#000000" fill-opacity="0.502"><g transform="translate(233.134024, 237.310757)"><g><path d="M 15.03125 0.625 C 12.738281 0.625 10.691406 0.132812 8.890625 -0.84375 C 7.085938 -1.832031 5.660156 -3.191406 4.609375 -4.921875 C 3.554688 -6.648438 3.03125 -8.648438 3.03125 -10.921875 L 3.03125 -29.078125 L 9.34375 -29.078125 L 9.34375 -11.21875 C 9.34375 -9.414062 9.875 -7.976562 10.9375 -6.90625 C 12.007812 -5.84375 13.375 -5.3125 15.03125 -5.3125 C 16.71875 -5.3125 18.09375 -5.84375 19.15625 -6.90625 C 20.226562 -7.976562 20.765625 -9.414062 20.765625 -11.21875 L 20.765625 -29.078125 L 27.03125 -29.078125 L 27.03125 -10.921875 C 27.03125 -8.648438 26.507812 -6.648438 25.46875 -4.921875 C 24.4375 -3.191406 23.015625 -1.832031 21.203125 -0.84375 C 19.390625 0.132812 17.332031 0.625 15.03125 0.625 Z M 15.03125 0.625 "/></g></g></g><g fill="#000000" fill-opacity="0.502"><g transform="translate(263.199308, 237.310757)"><g><path d="M 12.953125 0.578125 C 10.742188 0.578125 8.789062 0.175781 7.09375 -0.625 C 5.40625 -1.425781 4.082031 -2.570312 3.125 -4.0625 C 2.175781 -5.5625 1.703125 -7.347656 1.703125 -9.421875 L 8.0625 -9.421875 C 8.0625 -8.015625 8.550781 -6.972656 9.53125 -6.296875 C 10.507812 -5.617188 11.640625 -5.28125 12.921875 -5.28125 C 13.722656 -5.28125 14.472656 -5.410156 15.171875 -5.671875 C 15.878906 -5.929688 16.460938 -6.316406 16.921875 -6.828125 C 17.378906 -7.335938 17.609375 -7.957031 17.609375 -8.6875 C 17.609375 -9.425781 17.34375 -10.007812 16.8125 -10.4375 C 16.289062 -10.875 15.585938 -11.226562 14.703125 -11.5 C 13.816406 -11.78125 12.847656 -12.046875 11.796875 -12.296875 C 10.710938 -12.546875 9.601562 -12.847656 8.46875 -13.203125 C 7.332031 -13.566406 6.28125 -14.046875 5.3125 -14.640625 C 4.34375 -15.234375 3.566406 -16.035156 2.984375 -17.046875 C 2.410156 -18.054688 2.125 -19.335938 2.125 -20.890625 C 2.125 -23.679688 3.070312 -25.832031 4.96875 -27.34375 C 6.863281 -28.851562 9.429688 -29.609375 12.671875 -29.609375 C 15.992188 -29.609375 18.566406 -28.769531 20.390625 -27.09375 C 22.222656 -25.425781 23.140625 -23.148438 23.140625 -20.265625 L 16.90625 -20.265625 C 16.90625 -21.515625 16.460938 -22.4375 15.578125 -23.03125 C 14.691406 -23.625 13.664062 -23.921875 12.5 -23.921875 C 11.476562 -23.921875 10.535156 -23.695312 9.671875 -23.25 C 8.816406 -22.8125 8.390625 -22.125 8.390625 -21.1875 C 8.390625 -20.488281 8.644531 -19.9375 9.15625 -19.53125 C 9.664062 -19.132812 10.34375 -18.804688 11.1875 -18.546875 C 12.03125 -18.285156 12.96875 -18.03125 14 -17.78125 C 15.101562 -17.5 16.234375 -17.171875 17.390625 -16.796875 C 18.554688 -16.421875 19.640625 -15.914062 20.640625 -15.28125 C 21.640625 -14.644531 22.445312 -13.800781 23.0625 -12.75 C 23.6875 -11.695312 24 -10.367188 24 -8.765625 C 24 -6.660156 23.492188 -4.914062 22.484375 -3.53125 C 21.472656 -2.144531 20.132812 -1.113281 18.46875 -0.4375 C 16.8125 0.238281 14.972656 0.578125 12.953125 0.578125 Z M 12.953125 0.578125 "/></g></g></g><g fill="#000000" fill-opacity="0.502"><g transform="translate(288.904298, 237.310757)"><g><path d="M 9.640625 -5.859375 L 21.21875 -5.859375 L 21.21875 0 L 3.328125 0 L 3.328125 -29.078125 L 20.765625 -29.078125 L 20.765625 -23.25 L 9.640625 -23.25 L 9.640625 -17.53125 L 19.6875 -17.53125 L 19.6875 -11.84375 L 9.640625 -11.84375 Z M 9.640625 -5.859375 "/></g></g></g><g fill="#ffffff" fill-opacity="1"><g transform="translate(64.693443, 235.475073)"><g><path d="M 22.640625 0 L 20.59375 -5.53125 L 9.015625 -5.53125 L 7.015625 0 L 0.375 0 L 11.75 -29.078125 L 17.6875 -29.078125 L 29.453125 0 Z M 14.78125 -21.390625 L 11 -11 L 18.609375 -11 Z M 14.78125 -21.390625 "/></g></g></g><g fill="#ffffff" fill-opacity="1"><g transform="translate(94.509569, 235.475073)"><g><path d="M 19.3125 0 L 13.65625 -9.921875 L 9.640625 -9.921875 L 9.640625 0 L 3.328125 0 L 3.328125 -29.078125 L 15.078125 -29.078125 C 17.015625 -29.078125 18.742188 -28.660156 20.265625 -27.828125 C 21.785156 -26.992188 22.988281 -25.859375 23.875 -24.421875 C 24.757812 -22.984375 25.203125 -21.320312 25.203125 -19.4375 C 25.203125 -17.550781 24.722656 -15.867188 23.765625 -14.390625 C 22.816406 -12.910156 21.539062 -11.78125 19.9375 -11 L 26.375 0 Z M 9.640625 -23.25 L 9.640625 -15.734375 L 14.65625 -15.734375 C 15.957031 -15.734375 16.984375 -16.085938 17.734375 -16.796875 C 18.484375 -17.503906 18.859375 -18.398438 18.859375 -19.484375 C 18.859375 -20.585938 18.484375 -21.488281 17.734375 -22.1875 C 16.984375 -22.894531 15.957031 -23.25 14.65625 -23.25 Z M 9.640625 -23.25 "/></g></g></g><g fill="#ffffff" fill-opacity="1"><g transform="translate(121.958682, 235.475073)"><g><path d="M 16.65625 0.625 C 14.519531 0.625 12.535156 0.242188 10.703125 -0.515625 C 8.878906 -1.273438 7.289062 -2.335938 5.9375 -3.703125 C 4.582031 -5.078125 3.53125 -6.6875 2.78125 -8.53125 C 2.03125 -10.375 1.65625 -12.363281 1.65625 -14.5 C 1.65625 -16.65625 2.03125 -18.660156 2.78125 -20.515625 C 3.53125 -22.367188 4.582031 -23.976562 5.9375 -25.34375 C 7.289062 -26.71875 8.878906 -27.785156 10.703125 -28.546875 C 12.535156 -29.304688 14.519531 -29.6875 16.65625 -29.6875 C 19.007812 -29.6875 21.164062 -29.203125 23.125 -28.234375 C 25.09375 -27.265625 26.738281 -25.910156 28.0625 -24.171875 C 29.394531 -22.429688 30.285156 -20.410156 30.734375 -18.109375 L 24.421875 -18.109375 C 23.835938 -19.828125 22.851562 -21.191406 21.46875 -22.203125 C 20.082031 -23.210938 18.476562 -23.71875 16.65625 -23.71875 C 15.019531 -23.71875 13.550781 -23.304688 12.25 -22.484375 C 10.945312 -21.671875 9.914062 -20.570312 9.15625 -19.1875 C 8.394531 -17.800781 8.015625 -16.238281 8.015625 -14.5 C 8.015625 -12.75 8.394531 -11.1875 9.15625 -9.8125 C 9.914062 -8.445312 10.945312 -7.363281 12.25 -6.5625 C 13.550781 -5.757812 15.019531 -5.359375 16.65625 -5.359375 C 18.5625 -5.359375 20.207031 -5.894531 21.59375 -6.96875 C 22.976562 -8.050781 23.9375 -9.519531 24.46875 -11.375 L 30.8125 -11.375 C 30.375 -8.96875 29.492188 -6.863281 28.171875 -5.0625 C 26.859375 -3.269531 25.210938 -1.875 23.234375 -0.875 C 21.253906 0.125 19.0625 0.625 16.65625 0.625 Z M 16.65625 0.625 "/></g></g></g><g fill="#ffffff" fill-opacity="1"><g transform="translate(153.97573, 235.475073)"><g><path d="M 3.328125 0 L 3.328125 -29.078125 L 9.640625 -29.078125 L 9.640625 0 Z M 3.328125 0 "/></g></g></g><g fill="#ffffff" fill-opacity="1"><g transform="translate(166.932044, 235.475073)"><g><path d="M 20.5625 -29.078125 L 26.828125 -29.078125 L 26.828125 0 L 20.5625 0 L 20.5625 -12 L 9.640625 -12 L 9.640625 0 L 3.328125 0 L 3.328125 -29.078125 L 9.640625 -29.078125 L 9.640625 -17.859375 L 20.5625 -17.859375 Z M 20.5625 -29.078125 "/></g></g></g><g fill="#ffffff" fill-opacity="1"><g transform="translate(197.121915, 235.475073)"><g><path d="M 17.109375 0.625 C 14.890625 0.625 12.835938 0.242188 10.953125 -0.515625 C 9.078125 -1.273438 7.441406 -2.335938 6.046875 -3.703125 C 4.648438 -5.078125 3.5625 -6.6875 2.78125 -8.53125 C 2.007812 -10.375 1.625 -12.375 1.625 -14.53125 C 1.625 -16.695312 2.007812 -18.695312 2.78125 -20.53125 C 3.5625 -22.375 4.648438 -23.976562 6.046875 -25.34375 C 7.441406 -26.71875 9.078125 -27.785156 10.953125 -28.546875 C 12.835938 -29.304688 14.890625 -29.6875 17.109375 -29.6875 C 19.328125 -29.6875 21.375 -29.304688 23.25 -28.546875 C 25.132812 -27.785156 26.769531 -26.71875 28.15625 -25.34375 C 29.539062 -23.976562 30.617188 -22.375 31.390625 -20.53125 C 32.171875 -18.695312 32.5625 -16.695312 32.5625 -14.53125 C 32.5625 -12.375 32.171875 -10.375 31.390625 -8.53125 C 30.617188 -6.6875 29.539062 -5.078125 28.15625 -3.703125 C 26.769531 -2.335938 25.132812 -1.273438 23.25 -0.515625 C 21.375 0.242188 19.328125 0.625 17.109375 0.625 Z M 17.109375 -5.3125 C 18.859375 -5.3125 20.414062 -5.710938 21.78125 -6.515625 C 23.15625 -7.316406 24.234375 -8.410156 25.015625 -9.796875 C 25.804688 -11.179688 26.203125 -12.757812 26.203125 -14.53125 C 26.203125 -16.28125 25.804688 -17.851562 25.015625 -19.25 C 24.234375 -20.644531 23.15625 -21.742188 21.78125 -22.546875 C 20.414062 -23.347656 18.859375 -23.75 17.109375 -23.75 C 15.390625 -23.75 13.835938 -23.347656 12.453125 -22.546875 C 11.078125 -21.742188 9.984375 -20.644531 9.171875 -19.25 C 8.367188 -17.851562 7.96875 -16.28125 7.96875 -14.53125 C 7.96875 -12.789062 8.367188 -11.21875 9.171875 -9.8125 C 9.984375 -8.414062 11.078125 -7.316406 12.453125 -6.515625 C 13.835938 -5.710938 15.390625 -5.3125 17.109375 -5.3125 Z M 17.109375 -5.3125 "/></g></g></g><g fill="#ffffff" fill-opacity="1"><g transform="translate(231.298336, 235.475073)"><g><path d="M 15.03125 0.625 C 12.738281 0.625 10.691406 0.132812 8.890625 -0.84375 C 7.085938 -1.832031 5.660156 -3.191406 4.609375 -4.921875 C 3.554688 -6.648438 3.03125 -8.648438 3.03125 -10.921875 L 3.03125 -29.078125 L 9.34375 -29.078125 L 9.34375 -11.21875 C 9.34375 -9.414062 9.875 -7.976562 10.9375 -6.90625 C 12.007812 -5.84375 13.375 -5.3125 15.03125 -5.3125 C 16.71875 -5.3125 18.09375 -5.84375 19.15625 -6.90625 C 20.226562 -7.976562 20.765625 -9.414062 20.765625 -11.21875 L 20.765625 -29.078125 L 27.03125 -29.078125 L 27.03125 -10.921875 C 27.03125 -8.648438 26.507812 -6.648438 25.46875 -4.921875 C 24.4375 -3.191406 23.015625 -1.832031 21.203125 -0.84375 C 19.390625 0.132812 17.332031 0.625 15.03125 0.625 Z M 15.03125 0.625 "/></g></g></g><g fill="#ffffff" fill-opacity="1"><g transform="translate(261.36362, 235.475073)"><g><path d="M 12.953125 0.578125 C 10.742188 0.578125 8.789062 0.175781 7.09375 -0.625 C 5.40625 -1.425781 4.082031 -2.570312 3.125 -4.0625 C 2.175781 -5.5625 1.703125 -7.347656 1.703125 -9.421875 L 8.0625 -9.421875 C 8.0625 -8.015625 8.550781 -6.972656 9.53125 -6.296875 C 10.507812 -5.617188 11.640625 -5.28125 12.921875 -5.28125 C 13.722656 -5.28125 14.472656 -5.410156 15.171875 -5.671875 C 15.878906 -5.929688 16.460938 -6.316406 16.921875 -6.828125 C 17.378906 -7.335938 17.609375 -7.957031 17.609375 -8.6875 C 17.609375 -9.425781 17.34375 -10.007812 16.8125 -10.4375 C 16.289062 -10.875 15.585938 -11.226562 14.703125 -11.5 C 13.816406 -11.78125 12.847656 -12.046875 11.796875 -12.296875 C 10.710938 -12.546875 9.601562 -12.847656 8.46875 -13.203125 C 7.332031 -13.566406 6.28125 -14.046875 5.3125 -14.640625 C 4.34375 -15.234375 3.566406 -16.035156 2.984375 -17.046875 C 2.410156 -18.054688 2.125 -19.335938 2.125 -20.890625 C 2.125 -23.679688 3.070312 -25.832031 4.96875 -27.34375 C 6.863281 -28.851562 9.429688 -29.609375 12.671875 -29.609375 C 15.992188 -29.609375 18.566406 -28.769531 20.390625 -27.09375 C 22.222656 -25.425781 23.140625 -23.148438 23.140625 -20.265625 L 16.90625 -20.265625 C 16.90625 -21.515625 16.460938 -22.4375 15.578125 -23.03125 C 14.691406 -23.625 13.664062 -23.921875 12.5 -23.921875 C 11.476562 -23.921875 10.535156 -23.695312 9.671875 -23.25 C 8.816406 -22.8125 8.390625 -22.125 8.390625 -21.1875 C 8.390625 -20.488281 8.644531 -19.9375 9.15625 -19.53125 C 9.664062 -19.132812 10.34375 -18.804688 11.1875 -18.546875 C 12.03125 -18.285156 12.96875 -18.03125 14 -17.78125 C 15.101562 -17.5 16.234375 -17.171875 17.390625 -16.796875 C 18.554688 -16.421875 19.640625 -15.914062 20.640625 -15.28125 C 21.640625 -14.644531 22.445312 -13.800781 23.0625 -12.75 C 23.6875 -11.695312 24 -10.367188 24 -8.765625 C 24 -6.660156 23.492188 -4.914062 22.484375 -3.53125 C 21.472656 -2.144531 20.132812 -1.113281 18.46875 -0.4375 C 16.8125 0.238281 14.972656 0.578125 12.953125 0.578125 Z M 12.953125 0.578125 "/></g></g></g><g fill="#ffffff" fill-opacity="1"><g transform="translate(287.06861, 235.475073)"><g><path d="M 9.640625 -5.859375 L 21.21875 -5.859375 L 21.21875 0 L 3.328125 0 L 3.328125 -29.078125 L 20.765625 -29.078125 L 20.765625 -23.25 L 9.640625 -23.25 L 9.640625 -17.53125 L 19.6875 -17.53125 L 19.6875 -11.84375 L 9.640625 -11.84375 Z M 9.640625 -5.859375 "/></g></g></g><g fill="#000000" fill-opacity="1"><g transform="translate(99.555703, 259.293737)"><g><path d="M 5.734375 -1.65625 L 2.015625 -1.65625 L 1.3125 0 L 0.015625 0 L 3.265625 -7.375 L 4.53125 -7.375 L 7.765625 0 L 6.4375 0 Z M 5.25 -2.765625 L 3.859375 -6.046875 L 2.46875 -2.765625 Z M 5.25 -2.765625 "/></g></g></g><g fill="#000000" fill-opacity="1"><g transform="translate(115.748288, 259.293737)"><g><path d="M 5.640625 0 L 4.296875 -2.234375 C 4.222656 -2.222656 4.109375 -2.21875 3.953125 -2.21875 L 2.21875 -2.21875 L 2.21875 0 L 0.96875 0 L 0.96875 -7.375 L 3.953125 -7.375 C 4.898438 -7.375 5.628906 -7.15625 6.140625 -6.71875 C 6.660156 -6.28125 6.921875 -5.660156 6.921875 -4.859375 C 6.921875 -4.265625 6.789062 -3.765625 6.53125 -3.359375 C 6.269531 -2.953125 5.894531 -2.65625 5.40625 -2.46875 L 7.0625 0 Z M 2.21875 -3.34375 L 3.953125 -3.34375 C 5.148438 -3.34375 5.75 -3.835938 5.75 -4.828125 C 5.75 -5.773438 5.148438 -6.25 3.953125 -6.25 L 2.21875 -6.25 Z M 2.21875 -3.34375 "/></g></g></g><g fill="#000000" fill-opacity="1"><g transform="translate(131.782943, 259.293737)"><g><path d="M 4.234375 -7.40625 C 4.753906 -7.40625 5.257812 -7.300781 5.75 -7.09375 C 6.25 -6.894531 6.675781 -6.617188 7.03125 -6.265625 L 6.3125 -5.359375 C 6.039062 -5.648438 5.722656 -5.878906 5.359375 -6.046875 C 4.992188 -6.210938 4.625 -6.296875 4.25 -6.296875 C 3.519531 -6.296875 2.898438 -6.046875 2.390625 -5.546875 C 1.878906 -5.046875 1.625 -4.429688 1.625 -3.703125 C 1.625 -2.972656 1.878906 -2.359375 2.390625 -1.859375 C 2.898438 -1.359375 3.519531 -1.109375 4.25 -1.109375 C 5.019531 -1.109375 5.707031 -1.398438 6.3125 -1.984375 L 7.046875 -1.15625 C 6.671875 -0.78125 6.226562 -0.484375 5.71875 -0.265625 C 5.207031 -0.0546875 4.695312 0.046875 4.1875 0.046875 C 3.101562 0.046875 2.191406 -0.3125 1.453125 -1.03125 C 0.722656 -1.75 0.359375 -2.640625 0.359375 -3.703125 C 0.359375 -4.742188 0.726562 -5.617188 1.46875 -6.328125 C 2.21875 -7.046875 3.140625 -7.40625 4.234375 -7.40625 Z M 4.234375 -7.40625 "/></g></g></g><g fill="#000000" fill-opacity="1"><g transform="translate(147.543866, 259.293737)"><g><path d="M 7.359375 0 L 6.125 0 L 6.125 -3.046875 L 2.21875 -3.046875 L 2.21875 0 L 0.96875 0 L 0.96875 -7.375 L 2.21875 -7.375 L 2.21875 -4.171875 L 6.125 -4.171875 L 6.125 -7.375 L 7.359375 -7.375 Z M 7.359375 0 "/></g></g></g><g fill="#000000" fill-opacity="1"><g transform="translate(164.294452, 259.293737)"><g><path d="M 2.21875 0 L 0.96875 0 L 0.96875 -7.375 L 2.21875 -7.375 Z M 2.21875 0 "/></g></g></g><g fill="#000000" fill-opacity="1"><g transform="translate(175.896661, 259.293737)"><g><path d="M 6 -6.25 L 3.671875 -6.25 L 3.671875 0 L 2.421875 0 L 2.421875 -6.25 L 0.09375 -6.25 L 0.09375 -7.375 L 6 -7.375 Z M 6 -6.25 "/></g></g></g><g fill="#000000" fill-opacity="1"><g transform="translate(190.415227, 259.293737)"><g><path d="M 6.234375 -6.25 L 2.21875 -6.25 L 2.21875 -4.265625 L 5.8125 -4.265625 L 5.8125 -3.15625 L 2.21875 -3.15625 L 2.21875 -1.109375 L 6.359375 -1.109375 L 6.359375 0 L 0.96875 0 L 0.96875 -7.375 L 6.234375 -7.375 Z M 6.234375 -6.25 "/></g></g></g><g fill="#000000" fill-opacity="1"><g transform="translate(205.744483, 259.293737)"><g><path d="M 4.234375 -7.40625 C 4.753906 -7.40625 5.257812 -7.300781 5.75 -7.09375 C 6.25 -6.894531 6.675781 -6.617188 7.03125 -6.265625 L 6.3125 -5.359375 C 6.039062 -5.648438 5.722656 -5.878906 5.359375 -6.046875 C 4.992188 -6.210938 4.625 -6.296875 4.25 -6.296875 C 3.519531 -6.296875 2.898438 -6.046875 2.390625 -5.546875 C 1.878906 -5.046875 1.625 -4.429688 1.625 -3.703125 C 1.625 -2.972656 1.878906 -2.359375 2.390625 -1.859375 C 2.898438 -1.359375 3.519531 -1.109375 4.25 -1.109375 C 5.019531 -1.109375 5.707031 -1.398438 6.3125 -1.984375 L 7.046875 -1.15625 C 6.671875 -0.78125 6.226562 -0.484375 5.71875 -0.265625 C 5.207031 -0.0546875 4.695312 0.046875 4.1875 0.046875 C 3.101562 0.046875 2.191406 -0.3125 1.453125 -1.03125 C 0.722656 -1.75 0.359375 -2.640625 0.359375 -3.703125 C 0.359375 -4.742188 0.726562 -5.617188 1.46875 -6.328125 C 2.21875 -7.046875 3.140625 -7.40625 4.234375 -7.40625 Z M 4.234375 -7.40625 "/></g></g></g><g fill="#000000" fill-opacity="1"><g transform="translate(221.50541, 259.293737)"><g><path d="M 6 -6.25 L 3.671875 -6.25 L 3.671875 0 L 2.421875 0 L 2.421875 -6.25 L 0.09375 -6.25 L 0.09375 -7.375 L 6 -7.375 Z M 6 -6.25 "/></g></g></g><g fill="#000000" fill-opacity="1"><g transform="translate(236.023984, 259.293737)"><g><path d="M 7.234375 -7.375 L 7.234375 -3.046875 C 7.234375 -2.085938 6.945312 -1.332031 6.375 -0.78125 C 5.8125 -0.226562 5.03125 0.046875 4.03125 0.046875 C 3.03125 0.046875 2.242188 -0.226562 1.671875 -0.78125 C 1.109375 -1.332031 0.828125 -2.085938 0.828125 -3.046875 L 0.828125 -7.375 L 2.0625 -7.375 L 2.0625 -3.046875 C 2.0625 -2.429688 2.238281 -1.945312 2.59375 -1.59375 C 2.945312 -1.238281 3.429688 -1.0625 4.046875 -1.0625 C 4.648438 -1.0625 5.125 -1.234375 5.46875 -1.578125 C 5.820312 -1.929688 6 -2.421875 6 -3.046875 L 6 -7.375 Z M 7.234375 -7.375 "/></g></g></g><g fill="#000000" fill-opacity="1"><g transform="translate(252.490307, 259.293737)"><g><path d="M 5.640625 0 L 4.296875 -2.234375 C 4.222656 -2.222656 4.109375 -2.21875 3.953125 -2.21875 L 2.21875 -2.21875 L 2.21875 0 L 0.96875 0 L 0.96875 -7.375 L 3.953125 -7.375 C 4.898438 -7.375 5.628906 -7.15625 6.140625 -6.71875 C 6.660156 -6.28125 6.921875 -5.660156 6.921875 -4.859375 C 6.921875 -4.265625 6.789062 -3.765625 6.53125 -3.359375 C 6.269531 -2.953125 5.894531 -2.65625 5.40625 -2.46875 L 7.0625 0 Z M 2.21875 -3.34375 L 3.953125 -3.34375 C 5.148438 -3.34375 5.75 -3.835938 5.75 -4.828125 C 5.75 -5.773438 5.148438 -6.25 3.953125 -6.25 L 2.21875 -6.25 Z M 2.21875 -3.34375 "/></g></g></g><g fill="#000000" fill-opacity="1"><g transform="translate(268.524966, 259.293737)"><g><path d="M 6.234375 -6.25 L 2.21875 -6.25 L 2.21875 -4.265625 L 5.8125 -4.265625 L 5.8125 -3.15625 L 2.21875 -3.15625 L 2.21875 -1.109375 L 6.359375 -1.109375 L 6.359375 0 L 0.96875 0 L 0.96875 -7.375 L 6.234375 -7.375 Z M 6.234375 -6.25 "/></g></g></g></svg>